<svg
    xmlns="http://www.w3.org/2000/svg"
    viewBox="0 0 496 496"
    id="vector">
    <path
        id="path"
        d="M 248 248 M 105.6 248 C 105.6 217.933 115.123 188.624 132.796 164.299 C 150.469 139.974 175.4 121.861 203.996 112.57 C 232.592 103.278 263.408 103.278 292.004 112.57 C 320.6 121.861 345.531 139.974 363.204 164.299 C 380.877 188.624 390.4 217.933 390.4 248 C 390.4 285.752 375.387 321.997 348.692 348.692 C 321.997 375.387 285.752 390.4 248 390.4 C 210.248 390.4 174.003 375.387 147.308 348.692 C 120.613 321.997 105.6 285.752 105.6 248"
        fill="#ffce00"/>
    <path
        id="path_1"
        d="M 248 105.6 C 326.4 105.6 390.4 169.6 390.4 248 C 390.4 326.4 326.4 390.4 248 390.4"
        fill="#ff9d00"/>
    <path
        id="path_2"
        d="M 390.4 248 C 390.4 326.4 326.4 379.2 248 379.2 C 169.6 379.2 105.6 326.4 105.6 248 C 105.6 169.6 169.6 116.8 248 116.8 C 326.4 116.8 390.4 169.6 390.4 248 Z"
        fill="#ffbc00"/>
    <path
        id="path_3"
        d="M 248 116.8 C 326.4 116.8 390.4 169.6 390.4 248 C 390.4 326.4 326.4 379.2 248 379.2 C 169.6 379.2 105.6 326.4 105.6 248"
        fill="#ffb000"/>
    <path
        id="path_4"
        d="M 248 116.8 C 326.4 116.8 390.4 169.6 390.4 248 C 390.4 326.4 326.4 379.2 248 379.2"
        fill="#ffbc00"/>
    <path
        id="path_5"
        d="M 390.4 248 C 390.4 326.4 326.4 379.2 248 379.2"
        fill="#ffce00"/>
    <path
        id="path_6"
        d="M 248 59.2 M 237.6 59.2 C 237.6 56.443 238.696 53.796 240.646 51.846 C 242.596 49.896 245.243 48.8 248 48.8 C 250.757 48.8 253.404 49.896 255.354 51.846 C 257.304 53.796 258.4 56.443 258.4 59.2 C 258.4 61.957 257.304 64.604 255.354 66.554 C 253.404 68.504 250.757 69.6 248 69.6 C 245.243 69.6 242.596 68.504 240.646 66.554 C 238.696 64.604 237.6 61.957 237.6 59.2"
        fill="#ff9d00"/>
    <path
        id="path_7"
        d="M 260.8 24.8 L 248 28.8 L 235.2 24.8 L 248 0 Z"
        fill="#ffce00"/>
    <path
        id="path_8"
        d="M 248 436.8 M 237.6 436.8 C 237.6 434.043 238.696 431.396 240.646 429.446 C 242.596 427.496 245.243 426.4 248 426.4 C 250.757 426.4 253.404 427.496 255.354 429.446 C 257.304 431.396 258.4 434.043 258.4 436.8 C 258.4 439.557 257.304 442.204 255.354 444.154 C 253.404 446.104 250.757 447.2 248 447.2 C 245.243 447.2 242.596 446.104 240.646 444.154 C 238.696 442.204 237.6 439.557 237.6 436.8"
        fill="#ff9d00"/>
    <path
        id="path_9"
        d="M 235.2 471.2 L 248 467.2 L 260.8 471.2 L 248 496 Z"
        fill="#ffce00"/>
    <path
        id="path_10"
        d="M 388.8 122.4 C 384.8 126.4 377.6 126.4 373.6 122.4 C 369.6 118.4 369.6 111.2 373.6 107.2 C 377.6 103.2 384.8 103.2 388.8 107.2 C 392.8 111.2 392.8 118.4 388.8 122.4 Z"
        fill="#ff9d00"/>
    <path
        id="path_11"
        d="M 415.2 99.2 L 403.2 92.8 L 396.8 80.8 L 423.2 72.8 Z"
        fill="#ffce00"/>
    <path
        id="path_12"
        d="M 114.4 381.6 M 104 381.6 C 104 378.843 105.096 376.196 107.046 374.246 C 108.996 372.296 111.643 371.2 114.4 371.2 C 117.157 371.2 119.804 372.296 121.754 374.246 C 123.704 376.196 124.8 378.843 124.8 381.6 C 124.8 384.357 123.704 387.004 121.754 388.954 C 119.804 390.904 117.157 392 114.4 392 C 111.643 392 108.996 390.904 107.046 388.954 C 105.096 387.004 104 384.357 104 381.6"
        fill="#ff9d00"/>
    <path
        id="path_13"
        d="M 80.8 396.8 L 92.8 403.2 L 99.2 415.2 L 72.8 423.2 Z"
        fill="#ffce00"/>
    <path
        id="path_14"
        d="M 436.8 258.4 C 431.2 258.4 426.4 253.6 426.4 248 C 426.4 242.4 431.2 237.6 436.8 237.6 C 442.4 237.6 447.2 242.4 447.2 248 C 447.2 253.6 442.4 258.4 436.8 258.4 Z"
        fill="#ff9d00"/>
    <path
        id="path_15"
        d="M 471.2 260.8 L 467.2 248 L 471.2 235.2 L 496 248 Z"
        fill="#ffce00"/>
    <path
        id="path_16"
        d="M 59.2 248 M 48.8 248 C 48.8 245.243 49.896 242.596 51.846 240.646 C 53.796 238.696 56.443 237.6 59.2 237.6 C 61.957 237.6 64.604 238.696 66.554 240.646 C 68.504 242.596 69.6 245.243 69.6 248 C 69.6 250.196 68.905 252.336 67.614 254.113 C 66.323 255.89 64.502 257.212 62.414 257.891 C 60.325 258.57 58.075 258.57 55.986 257.891 C 53.898 257.212 52.077 255.89 50.786 254.113 C 49.495 252.336 48.8 250.196 48.8 248"
        fill="#ff9d00"/>
    <path
        id="path_17"
        d="M 24.8 235.2 L 28.8 248 L 24.8 260.8 L 0 248 Z"
        fill="#ffce00"/>
    <path
        id="path_18"
        d="M 373.6 388.8 C 369.6 384.8 369.6 377.6 373.6 373.6 C 377.6 369.6 384.8 369.6 388.8 373.6 C 392.8 377.6 392.8 384.8 388.8 388.8 C 384.8 392.8 377.6 392.8 373.6 388.8 Z"
        fill="#ff9d00"/>
    <path
        id="path_19"
        d="M 396.8 415.2 L 403.2 403.2 L 415.2 396.8 L 423.2 423.2 Z"
        fill="#ffce00"/>
    <path
        id="path_20"
        d="M 122.4 107.2 C 126.4 111.2 126.4 118.4 122.4 122.4 C 118.4 126.4 111.2 126.4 107.2 122.4 C 103.2 118.4 103.2 111.2 107.2 107.2 C 111.2 103.2 118.4 103.2 122.4 107.2 Z"
        fill="#ff9d00"/>
    <path
        id="path_21"
        d="M 99.2 80.8 L 92.8 92.8 L 80.8 99.2 L 72.8 72.8 Z"
        fill="#ffce00"/>
    <path
        id="path_22"
        d="M 331.2 78.4 C 328.8 84 322.4 86.4 317.6 84 C 312 81.6 309.6 75.2 312 70.4 C 314.4 64.8 320.8 62.4 325.6 64.8 C 331.2 67.2 333.6 73.6 331.2 78.4 Z"
        fill="#ffce00"/>
    <path
        id="path_23"
        d="M 347.2 47.2 L 333.6 46.4 L 324 37.6 L 344.8 20 Z"
        fill="#ff9d00"/>
    <path
        id="path_24"
        d="M 174.4 421.6 M 164 421.6 C 163.993 419.4 164.685 417.253 165.975 415.47 C 167.265 413.687 169.088 412.359 171.18 411.678 C 173.272 410.997 175.528 410.997 177.62 411.678 C 179.712 412.359 181.535 413.687 182.825 415.47 C 184.115 417.253 184.807 419.4 184.8 421.6 C 184.807 423.8 184.115 425.947 182.825 427.73 C 181.535 429.513 179.712 430.841 177.62 431.522 C 175.528 432.203 173.272 432.203 171.18 431.522 C 169.088 430.841 167.265 429.513 165.975 427.73 C 164.685 425.947 163.993 423.8 164 421.6"
        fill="#ffce00"/>
    <path
        id="path_25"
        d="M 148.8 448.8 L 162.4 449.6 L 172 458.4 L 151.2 476 Z"
        fill="#ff9d00"/>
    <path
        id="path_26"
        d="M 426.4 187.2 C 420.8 189.6 414.4 186.4 412.8 181.6 C 410.4 176 413.6 169.6 418.4 168 C 424 165.6 430.4 168.8 432 173.6 C 435.2 179.2 432 184.8 426.4 187.2 Z"
        fill="#ffce00"/>
    <path
        id="path_27"
        d="M 460 176 L 451.2 165.6 L 450.4 152.8 L 477.6 155.2 Z"
        fill="#ff9d00"/>
    <path
        id="path_28"
        d="M 69.6 308.8 C 75.2 306.4 81.6 309.6 83.2 314.4 C 85.6 320 82.4 326.4 77.6 328 C 72 330.4 65.6 328 63.2 322.4 C 60.8 316.8 64 311.2 69.6 308.8 Z"
        fill="#ffce00"/>
    <path
        id="path_29"
        d="M 36 320 L 44.8 330.4 L 45.6 343.2 L 18.4 340.8 Z"
        fill="#ff9d00"/>
    <path
        id="path_30"
        d="M 417.6 331.2 C 412 328.8 409.6 322.4 412 317.6 C 414.4 312 420.8 309.6 425.6 312 C 431.2 314.4 433.6 320.8 431.2 325.6 C 428.8 331.2 422.4 333.6 417.6 331.2 Z"
        fill="#ffce00"/>
    <path
        id="path_31"
        d="M 448.8 347.2 L 449.6 333.6 L 458.4 324 L 476 344.8 Z"
        fill="#ff9d00"/>
    <path
        id="path_32"
        d="M 78.4 164.8 C 84 167.2 86.4 173.6 84 178.4 C 81.6 184 75.2 186.4 70.4 184 C 64.8 181.6 62.4 175.2 64.8 170.4 C 67.2 164.8 73.6 162.4 78.4 164.8 Z"
        fill="#ffce00"/>
    <path
        id="path_33"
        d="M 47.2 148.8 L 46.4 162.4 L 37.6 172 L 20 151.2 Z"
        fill="#ff9d00"/>
    <path
        id="path_34"
        d="M 318.4 422.4 M 308 422.4 C 307.993 420.2 308.685 418.053 309.975 416.27 C 311.265 414.487 313.088 413.159 315.18 412.478 C 317.272 411.797 319.528 411.797 321.62 412.478 C 323.712 413.159 325.535 414.487 326.825 416.27 C 328.115 418.053 328.807 420.2 328.8 422.4 C 328.807 424.6 328.115 426.747 326.825 428.53 C 325.535 430.313 323.712 431.641 321.62 432.322 C 319.528 433.003 317.272 433.003 315.18 432.322 C 313.088 431.641 311.265 430.313 309.975 428.53 C 308.685 426.747 307.993 424.6 308 422.4"
        fill="#ffce00"/>
    <path
        id="path_35"
        d="M 320 460 L 330.4 451.2 L 343.2 450.4 L 340.8 477.6 Z"
        fill="#ff9d00"/>
    <path
        id="path_36"
        d="M 187.2 69.6 C 189.6 75.2 186.4 81.6 181.6 83.2 C 176 85.6 169.6 82.4 168 77.6 C 165.6 72 168 65.6 173.6 63.2 C 179.2 60.8 184.8 64 187.2 69.6 Z"
        fill="#ffce00"/>
    <path
        id="path_37"
        d="M 176 36 L 165.6 44.8 L 152.8 45.6 L 155.2 17.6 Z"
        fill="#ff9d00"/>
</svg>
